<?xml version="1.0" encoding="iso-8859-1"?>
<!-- Generator: Adobe Illustrator 19.0.0, SVG Export Plug-In . SVG Version: 6.00 Build 0)  -->
<svg version="1.1" id="Capa_1" xmlns="http://www.w3.org/2000/svg" xmlns:xlink="http://www.w3.org/1999/xlink" x="0px" y="0px"
	 viewBox="0 0 512 512" style="enable-background:new 0 0 512 512;" xml:space="preserve">
<circle style="fill:#1E499E;" cx="256" cy="256" r="256"/>
<path style="fill:#0E387C;" d="M326.789,82.315L126.245,250l238.024,238.024c84.054-39.29,143.231-122.894,147.47-220.759
	L326.789,82.315z"/>
<rect x="149.64" y="189.94" style="fill:#FFB111;" width="213" height="174.76"/>
<rect x="255.95" y="189.94" style="fill:#FF8700;" width="106.69" height="174.76"/>
<path style="fill:#FFC776;" d="M369.455,353.514l-71.992-9.209c-8.838-1.131-15.459-8.653-15.459-17.562v-32.654h-52.007v32.654
	c0,8.91-6.621,16.432-15.459,17.562l-71.992,9.209c-22.037,2.819-38.547,21.575-38.547,43.792v64.688
	C146.509,493.414,199.081,512,256,512s109.491-18.586,152.001-50.007v-64.688C408.001,375.088,391.492,356.333,369.455,353.514z"/>
<path style="fill:#FFBB61;" d="M369.455,353.514l-71.992-9.209c-8.838-1.131-15.459-8.653-15.459-17.562v-32.654h-26.051V512
	c0.016,0,0.032,0,0.048,0c56.919,0,109.491-18.586,152.001-50.007v-64.688C408.001,375.088,391.492,356.333,369.455,353.514z"/>
<path style="fill:#FED080;" d="M305.162,299.136l-14.163,7.626c-21.763,11.718-47.957,11.718-69.72,0l-14.163-7.626
	c-26.154-14.083-42.464-41.389-42.464-71.094v-87.359h182.973v87.359C347.626,257.747,331.316,285.053,305.162,299.136z"/>
<path style="fill:#FFC776;" d="M347.625,140.683h-91.673v174.865c12.051,0.031,24.109-2.896,35.047-8.786l14.163-7.626
	c26.154-14.083,42.464-41.389,42.464-71.094L347.625,140.683z"/>
<path style="fill:#FFFFFF;" d="M369.455,353.514l-60.93-7.794C295.389,359.732,276.723,368.5,256,368.5s-39.389-8.768-52.525-22.781
	l-60.93,7.794c-22.037,2.819-38.547,21.575-38.547,43.792v64.688C146.509,493.414,199.081,512,256,512
	s109.491-18.586,152.001-50.007v-64.688C408.001,375.088,391.492,356.333,369.455,353.514z"/>
<path style="fill:#EBEEF0;" d="M369.455,353.514l-60.93-7.794C295.389,359.732,276.723,368.5,256,368.5
	c-0.016,0-0.032-0.001-0.048-0.001V512c0.016,0,0.032,0,0.048,0c56.919,0,109.491-18.586,152.001-50.007v-64.688
	C408.001,375.088,391.492,356.333,369.455,353.514z"/>
<path style="fill:#FEC928;" d="M255.762,60.926c-58.86,0.204-106.123,48.795-106.123,107.655v148.72l12.472-29.597
	c3.59-8.519,5.439-17.67,5.439-26.914v-59.537c95.284-12.072,130.345-55.878,130.345-55.878s12.907,30.69,46.834,55.988v59.427
	c0,9.244,1.849,18.395,5.439,26.914l12.472,29.597V167.425C362.639,108.482,314.753,60.722,255.762,60.926z"/>
<path style="fill:#FEC007;" d="M362.639,167.425c0-58.88-47.783-106.598-106.686-106.497v114.758
	c29.689-15.009,41.942-30.311,41.942-30.311s12.907,30.69,46.834,55.988v59.427c0,9.244,1.849,18.395,5.439,26.914l12.472,29.597
	L362.639,167.425z"/>
<path style="fill:#0096A6;" d="M366.585,229.409h-21.45v-62.204c0-49.149-39.986-89.135-89.135-89.135s-89.135,39.986-89.135,89.135
	v62.204h-21.45v-62.204c0-60.976,49.608-110.585,110.585-110.585s110.585,49.608,110.585,110.585L366.585,229.409L366.585,229.409z"
	/>
<g>
	<path style="fill:#00828E;" d="M256,56.621c-0.016,0-0.032,0-0.048,0v21.45c0.016,0,0.032-0.001,0.048-0.001
		c49.149,0,89.135,39.986,89.135,89.135v62.204h21.449v-62.204C366.584,106.229,316.976,56.621,256,56.621z"/>
	<path style="fill:#00828E;" d="M304.381,296.468h-61.012v-21.45h61.012c21.946,0,39.801-17.854,39.801-39.801h21.45
		C365.631,268.991,338.154,296.468,304.381,296.468z"/>
</g>
<path style="fill:#00AFFE;" d="M167.613,255.626h-23.454c-17.321,0-31.362-14.041-31.362-31.362v-36.458
	c0-17.321,14.041-31.362,31.362-31.362h23.454V255.626z"/>
<path style="fill:#039AE4;" d="M367.841,255.626h-23.454v-99.181h23.454c17.321,0,31.362,14.041,31.362,31.362v36.458
	C399.203,241.584,385.162,255.626,367.841,255.626z"/>
<path style="fill:#DC2C00;" d="M250.28,308.623h-25.263c-12.504,0-22.641-10.137-22.641-22.641l0,0
	c0-12.504,10.137-22.641,22.641-22.641h25.263c12.504,0,22.641,10.137,22.641,22.641l0,0
	C272.921,298.486,262.785,308.623,250.28,308.623z"/>
<path style="fill:#B21F02;" d="M255.952,264.057v43.849c9.759-2.518,16.969-11.379,16.969-21.925l0,0
	C272.921,275.436,265.712,266.575,255.952,264.057z"/>
<g>
</g>
<g>
</g>
<g>
</g>
<g>
</g>
<g>
</g>
<g>
</g>
<g>
</g>
<g>
</g>
<g>
</g>
<g>
</g>
<g>
</g>
<g>
</g>
<g>
</g>
<g>
</g>
<g>
</g>
</svg>
