<?xml version="1.0" encoding="iso-8859-1"?>
<!-- Generator: Adobe Illustrator 19.0.0, SVG Export Plug-In . SVG Version: 6.00 Build 0)  -->
<svg version="1.1" id="Capa_1" xmlns="http://www.w3.org/2000/svg" xmlns:xlink="http://www.w3.org/1999/xlink" x="0px" y="0px"
	 viewBox="0 0 512 512" style="enable-background:new 0 0 512 512;" xml:space="preserve">
<path style="fill:#343E6B;" d="M168.109,512c-13.475,0-24.4-10.924-24.4-24.4V292.571c0-13.475,10.924-24.4,24.4-24.4
	c13.475,0,24.4,10.924,24.4,24.4V487.6C192.509,501.075,181.584,512,168.109,512z"/>
<path style="fill:#414B82;" d="M109.208,512c-13.475,0-24.4-10.924-24.4-24.4V292.571c0-13.475,10.924-24.4,24.4-24.4
	s24.4,10.924,24.4,24.4V487.6C133.607,501.075,122.684,512,109.208,512z"/>
<path style="fill:#252D5C;" d="M242.103,145.173c-0.133-26.399-22.054-47.876-48.867-47.876c-13.239,0-92.973,0-109.158,0
	c-26.813,0-48.735,21.477-48.867,47.876c0,0.034,0,0.068,0,0.102v149.379c0,11.23,9.103,20.333,20.333,20.333
	s20.333-9.103,20.333-20.333V145.343c0.043-3.867,3.941-7.379,8.202-7.379h0.732v154.609h107.698v-154.61h0.727
	c4.26,0,8.159,3.513,8.202,7.379v149.312c0,11.23,9.103,20.333,20.333,20.333c11.23,0,20.333-9.103,20.333-20.333V145.274
	C242.103,145.241,242.103,145.207,242.103,145.173z"/>
<path style="fill:#1B224A;" d="M242.103,145.173c-0.133-26.399-22.054-47.876-48.867-47.876c-6.446,0-48.173,0-54.584,0v195.275
	h53.857v-154.61h0.727c4.26,0,8.159,3.513,8.202,7.379v149.312c0,11.23,9.103,20.333,20.333,20.333
	c11.23,0,20.333-9.103,20.333-20.333V145.274C242.103,145.241,242.103,145.207,242.103,145.173z"/>
<rect x="209.85" y="284.164" style="fill:#292D30;" width="23.688" height="51.082"/>
<g>
	<path style="fill:#FFFFFF;" d="M35.202,284.166v10.488c0,11.23,9.103,20.333,20.333,20.333s20.333-9.103,20.333-20.333v-10.488
		H35.202z"/>
	<path style="fill:#FFFFFF;" d="M201.43,284.166v10.488c0,11.23,9.103,20.333,20.333,20.333c11.23,0,20.333-9.103,20.333-20.333
		v-10.488H201.43z"/>
</g>
<g>
	<path style="fill:#FFB69E;" d="M35.202,294.131v0.523c0,11.23,9.103,20.333,20.333,20.333s20.333-9.103,20.333-20.333v-0.523
		H35.202z"/>
	<path style="fill:#FFB69E;" d="M201.43,294.131v0.523c0,11.23,9.103,20.333,20.333,20.333c11.23,0,20.333-9.103,20.333-20.333
		v-0.523H201.43z"/>
	<circle style="fill:#FFB69E;" cx="138.648" cy="42.183" r="42.141"/>
</g>
<path style="fill:#80391B;" d="M237.96,427.354h-32.425c-4.144,0-7.503-3.359-7.503-7.503v-82.665c0-4.144,3.359-7.503,7.503-7.503
	h32.425c4.144,0,7.503,3.359,7.503,7.503v82.665C245.462,423.995,242.103,427.354,237.96,427.354z"/>
<polygon style="fill:#FFFFFF;" points="107.627,97.297 138.652,178.715 169.684,97.297 "/>
<path style="fill:#CD2D23;" d="M152.146,125.013l-6.892-12.535l5.94-10.803c1.08-1.965-0.343-4.377-2.589-4.377h-19.914
	c-2.242,0-3.67,2.41-2.589,4.377l5.96,10.839l-6.873,12.501c-0.952,1.731-1.261,3.742-0.875,5.679l4.239,21.522l10.095,26.5
	l10.105-26.505l4.263-21.515C153.409,128.757,153.098,126.744,152.146,125.013z"/>
<path style="fill:#B71A16;" d="M152.146,125.013l-6.892-12.535l5.94-10.803c1.08-1.965-0.342-4.377-2.589-4.377h-9.954v81.402v0.017
	l10.105-26.505l4.263-21.515C153.409,128.757,153.098,126.744,152.146,125.013z"/>
<rect x="153.67" y="159.855" style="fill:#252D5C;" width="26.86" height="8.284"/>
<path style="fill:#632C15;" d="M237.96,329.684h-16.267v97.67h16.267c4.144,0,7.503-3.36,7.503-7.503v-82.665
	C245.462,333.043,242.103,329.684,237.96,329.684z"/>
<rect x="441.188" y="284.034" style="fill:#292D30;" width="23.688" height="51.173"/>
<path style="fill:#42464A;" d="M399.445,512c-13.475,0-24.4-10.924-24.4-24.4l0.001-195.242c0-13.475,10.923-24.186,24.399-24.186
	c13.476,0,24.4,10.711,24.4,24.186V487.6C423.844,501.075,412.92,512,399.445,512z"/>
<path style="fill:#50555A;" d="M340.544,511.77c-13.475,0-24.4-10.924-24.4-24.4V292.341c0-13.475,10.924-24.4,24.4-24.4
	c13.475,0,24.4,10.924,24.4,24.4V487.37C364.944,500.845,354.021,511.77,340.544,511.77z"/>
<path style="fill:#373C41;" d="M473.432,145.04c-0.133-26.399-22.054-47.876-48.867-47.876c-18.379,0-80.08,0-109.158,0
	c-26.813,0-48.735,21.477-48.867,47.876c0,0.034,0,0.068,0,0.102v149.379c0,11.23,9.103,20.333,20.333,20.333
	s20.333-9.103,20.333-20.333V145.21c0.043-3.867,3.941-7.379,8.202-7.379h0.738v154.527h107.7V137.83h0.72
	c4.26,0,8.159,3.513,8.202,7.379v149.312c0,11.23,9.103,20.333,20.333,20.333s20.333-9.103,20.333-20.333V145.143
	C473.432,145.109,473.432,145.074,473.432,145.04z"/>
<path style="fill:#292D30;" d="M473.432,145.04c-0.133-26.399-22.054-47.876-48.867-47.876c-10.072,0-44.345,0-54.567,0
	l-0.013,81.419l0.013,113.775h53.846V137.83h0.72c4.26,0,8.159,3.513,8.202,7.379v149.312c0,11.23,9.103,20.333,20.333,20.333
	c11.23,0,20.333-9.103,20.333-20.333V145.143C473.432,145.109,473.432,145.074,473.432,145.04z"/>
<circle style="fill:#BA6746;" cx="369.986" cy="42.141" r="42.141"/>
<path style="fill:#80391B;" d="M469.295,427.313H436.87c-4.144,0-7.503-3.359-7.503-7.503v-82.665c0-4.144,3.359-7.503,7.503-7.503
	h32.425c4.144,0,7.503,3.359,7.503,7.503v82.665C476.798,423.953,473.439,427.313,469.295,427.313z"/>
<g>
	<path style="fill:#FFFFFF;" d="M266.537,284.034v10.488c0,11.23,9.103,20.333,20.333,20.333s20.333-9.103,20.333-20.333v-10.488
		H266.537z"/>
	<path style="fill:#FFFFFF;" d="M432.766,284.034v10.488c0,11.23,9.103,20.333,20.333,20.333s20.333-9.103,20.333-20.333v-10.488
		H432.766z"/>
</g>
<g>
	<path style="fill:#BA6746;" d="M266.537,293.999v0.523c0,11.23,9.103,20.333,20.333,20.333s20.333-9.103,20.333-20.333v-0.523
		H266.537z"/>
	<path style="fill:#BA6746;" d="M432.766,293.999v0.523c0,11.23,9.103,20.333,20.333,20.333s20.333-9.103,20.333-20.333v-0.523
		H432.766z"/>
</g>
<polygon style="fill:#FFFFFF;" points="338.956,97.164 369.985,178.583 401.013,97.164 "/>
<path style="fill:#78BEFF;" d="M383.475,125.002l-6.926-12.597l5.973-10.865c1.08-1.965-0.343-4.377-2.589-4.377H360.02
	c-2.242,0-3.67,2.41-2.589,4.377l5.994,10.902l-6.907,12.561c-0.952,1.731-1.261,3.742-0.875,5.679l4.316,21.598l10.024,26.302
	l10.059-26.396l4.305-21.502C384.738,128.747,384.427,126.734,383.475,125.002z"/>
<path style="fill:#5AAAE5;" d="M383.475,125.002l-6.926-12.597l5.973-10.865c1.08-1.965-0.343-4.377-2.589-4.377h-9.95v81.419l0,0
	l10.059-26.396l4.305-21.502C384.738,128.747,384.427,126.734,383.475,125.002z"/>
<rect x="384.626" y="159.855" style="fill:#373C41;" width="26.86" height="8.284"/>
<path style="fill:#632C15;" d="M469.295,329.643h-16.196v97.67h16.196c4.144,0,7.503-3.359,7.503-7.503v-82.665
	C476.798,333.002,473.439,329.643,469.295,329.643z"/>
<g>
</g>
<g>
</g>
<g>
</g>
<g>
</g>
<g>
</g>
<g>
</g>
<g>
</g>
<g>
</g>
<g>
</g>
<g>
</g>
<g>
</g>
<g>
</g>
<g>
</g>
<g>
</g>
<g>
</g>
</svg>
