<?xml version="1.0" encoding="iso-8859-1"?>
<!-- Generator: Adobe Illustrator 19.0.0, SVG Export Plug-In . SVG Version: 6.00 Build 0)  -->
<svg version="1.1" id="Capa_1" xmlns="http://www.w3.org/2000/svg" xmlns:xlink="http://www.w3.org/1999/xlink" x="0px" y="0px"
	 viewBox="0 0 512.001 512.001" style="enable-background:new 0 0 512.001 512.001;" xml:space="preserve">
<circle style="fill:#1976D1;" cx="256" cy="256" r="256"/>
<path style="fill:#1565BF;" d="M508.827,296.333L380.292,167.798l-0.218,3.605l-50.819-51.069L77,337.421l33.594,33.628
	l-1.625,0.858l138.865,139.951c2.713,0.085,5.433,0.143,8.167,0.143C383.66,512,489.482,418.553,508.827,296.333z"/>
<circle style="fill:#37474F;" cx="139.72" cy="340.44" r="44.02"/>
<circle style="fill:#546E7A;" cx="139.72" cy="340.44" r="23.386"/>
<circle style="fill:#263238;" cx="377.43" cy="340.44" r="44.02"/>
<circle style="fill:#455A64;" cx="377.43" cy="340.44" r="23.386"/>
<polygon style="fill:#FED44F;" points="380.292,167.798 324.806,167.798 324.806,318.976 434.162,318.976 434.162,230.789 "/>
<polygon style="fill:#00BED2;" points="417.912,232.398 373.052,181.049 325.472,181.049 324.139,232.398 "/>
<rect x="80.29" y="120.33" style="fill:#FFFFFF;" width="248.97" height="207.45"/>
<rect x="224.7" y="120.33" style="fill:#E6E6E6;" width="104.56" height="207.45"/>
<path style="fill:#FEB200;" d="M431.077,340.987H87.717c-9.877,0-17.883-8.007-17.883-17.883l0,0
	c0-9.877,8.007-17.883,17.883-17.883h343.36c9.877,0,17.883,8.007,17.883,17.883l0,0C448.96,332.98,440.953,340.987,431.077,340.987
	z"/>
<path style="fill:#FEAA00;" d="M431.077,305.22H224.571v35.767h206.505c9.877,0,17.883-8.007,17.883-17.883
	S440.953,305.22,431.077,305.22z"/>
<g>
</g>
<g>
</g>
<g>
</g>
<g>
</g>
<g>
</g>
<g>
</g>
<g>
</g>
<g>
</g>
<g>
</g>
<g>
</g>
<g>
</g>
<g>
</g>
<g>
</g>
<g>
</g>
<g>
</g>
</svg>
